<svg width="152" height="41" viewBox="0 0 152 41" fill="none" xmlns="http://www.w3.org/2000/svg">
<g clip-path="url(#clip0_1_5)">
<g clip-path="url(#clip1_1_5)">
<path d="M13.2361 37.8049C10.3248 37.8049 7.88912 37.2284 5.92903 36.0754C3.47893 34.663 2.25388 32.6164 2.25388 29.9357C2.25388 27.2262 3.46452 24.8193 5.8858 22.7151C8.16295 20.6974 10.6851 19.6885 13.4523 19.6885C14.6341 19.6885 15.225 19.8038 15.225 20.0344C15.225 20.1497 14.7926 20.1929 13.9279 20.1641C11.1319 20.1641 8.81151 21 6.96673 22.6719C5.00664 24.459 4.0266 26.7073 4.0266 29.4169C4.0266 31.8381 4.83369 33.7694 6.44788 35.2106C8.06207 36.6519 10.1086 37.3725 12.5876 37.3725C14.6629 37.3725 16.9977 36.8681 19.592 35.8592C24.1175 34.0144 26.3802 31.1752 26.3802 27.3415C26.3802 25.0931 25.3425 23.1763 23.2671 21.5909L17.5166 17.8725C15.47 16.3448 14.4468 14.6442 14.4468 12.7706C14.4468 11.4158 14.9368 10.2052 15.9168 9.13864C14.9944 9.22512 14.2306 9.6719 13.6252 10.479C13.0199 11.2573 12.7173 12.122 12.7173 13.0732C12.7173 15.091 13.6397 16.8493 15.4844 18.3482L20.8026 21.9801C22.7627 23.479 23.8436 25.2084 24.0454 27.1685C24.6219 26.592 25.0687 26.3038 25.3857 26.3038C25.6163 26.3038 25.7316 26.4767 25.7316 26.8226C25.7316 27.8315 25.0254 28.9124 23.613 30.0654C22.9789 31.7373 21.7106 33.2506 19.8082 34.6053C17.9634 35.9313 16.133 36.5942 14.317 36.5942C14.1729 36.5942 14.1009 36.551 14.1009 36.4645C14.1009 36.2916 14.2162 36.2051 14.4468 36.2051L16.0898 35.9457C17.4445 35.5709 18.7272 34.8792 19.9379 33.8703C21.1485 32.8326 22.0421 31.6796 22.6186 30.4113C22.0421 29.7483 21.7538 28.9701 21.7538 28.0765C21.7538 27.0965 21.9988 26.6064 22.4889 26.6064C22.7195 26.6064 22.9356 26.7073 23.1374 26.9091C23.0221 25.9867 22.6906 25.1076 22.143 24.2716C21.6241 23.4357 20.8747 22.6863 19.8946 22.0233L14.7926 18.5211C13.0055 16.9934 12.1119 15.1918 12.1119 13.1165C12.1119 11.9635 12.4867 10.969 13.2361 10.1331C14.0144 9.26836 14.98 8.83599 16.133 8.83599H16.2195C18.3525 6.78943 21.2206 5.76615 24.8237 5.76615C27.9367 5.76615 30.0986 6.47235 31.3092 7.88477C31.7416 8.34597 31.9578 8.86481 31.9578 9.44131C31.9578 10.4213 31.3236 11.1564 30.0554 11.6464C29.1618 11.9923 28.1097 12.1652 26.899 12.1652C26.3226 12.1652 25.7172 12.122 25.0831 12.0355C24.4489 11.9491 23.7716 11.8338 23.0509 11.6896C21.4079 11.2861 20.2261 10.8105 19.5055 10.2628C19.4478 10.2052 19.419 10.1619 19.419 10.1331C19.419 10.0466 19.4623 10.0034 19.5487 10.0034C19.6352 10.0034 19.6929 10.0178 19.7217 10.0466C21.4223 11.142 23.7716 11.6896 26.7693 11.6896C27.7206 11.6896 28.5853 11.5311 29.3636 11.214C30.3724 10.8105 30.8769 10.2052 30.8769 9.39807C30.8769 8.30273 30.0842 7.48122 28.4988 6.93355C27.2882 6.53 26.0631 6.32823 24.8237 6.32823C21.0476 6.32823 18.4678 7.53887 17.0842 9.96015C16.623 10.7096 16.3924 11.5311 16.3924 12.4247C16.3924 14.2118 17.4157 15.826 19.4623 17.2672L25.1696 20.8991C27.2161 22.5998 28.2394 24.6896 28.2394 27.1685C28.2394 30.5122 26.5099 33.2073 23.0509 35.2539C20.1396 36.9545 16.868 37.8049 13.2361 37.8049ZM30.4442 35.3404C30.0983 35.3404 29.9541 35.2251 30.0118 34.9945C29.9253 34.8215 29.7235 34.4468 29.4065 33.8703C29.0606 33.3803 28.8876 33.0776 28.8876 32.9623C28.8876 32.7317 28.9885 32.602 29.1903 32.5732C29.4785 32.4002 29.7812 32.184 30.0983 31.9246C30.4153 31.6652 30.7612 31.3769 31.1359 31.0599C32.9519 25.7561 35.9641 18.4779 40.1725 9.22512C40.2878 8.93687 40.4319 8.59098 40.6049 8.18743C40.8067 7.78388 41.0373 7.30827 41.2967 6.7606C41.7002 6.09763 42.4641 5.76615 43.5882 5.76615C44.0206 5.76615 44.2368 5.86703 44.2368 6.06881C44.2368 6.12646 44.208 6.18411 44.1503 6.24176L41.6426 10.9546C39.6537 14.7018 37.9674 18.0743 36.5838 21.0721C35.2002 24.0699 34.1049 26.7073 33.2978 28.9845C34.912 27.3703 36.2379 25.9291 37.2756 24.6608C38.3421 23.3637 39.1492 22.2251 39.6969 21.245C39.7545 21.1009 39.8554 20.8991 39.9996 20.6397C40.1725 20.3515 40.4608 20.2074 40.8643 20.2074C41.2102 20.2074 41.3831 20.3227 41.3831 20.5532C41.3831 20.6974 41.3543 20.8991 41.2967 21.1586C41.2678 21.418 41.2246 21.7495 41.167 22.153C41.1093 22.5277 41.0661 22.8592 41.0373 23.1475C41.0084 23.4069 40.994 23.6375 40.994 23.8393C40.994 25.5976 41.2534 27.3703 41.7723 29.1574C42.5217 31.6364 43.545 32.8758 44.8421 32.8758C45.1015 32.8758 45.3898 32.8038 45.7069 32.6596C46.0239 32.5155 46.2257 32.4435 46.3122 32.4435C46.5428 32.4435 46.6581 32.5588 46.6581 32.7894C46.6581 33.0776 46.3698 33.337 45.7933 33.5676C45.188 33.7982 44.7268 33.9135 44.4097 33.9135C42.9685 33.9135 41.657 32.7461 40.4752 30.4113C39.4663 28.3071 38.9619 26.347 38.9619 24.5311C38.9619 24.3869 38.9619 24.2572 38.9619 24.1419C38.9619 24.0266 38.9763 23.9113 39.0051 23.796C38.4863 24.5455 37.708 25.4679 36.6703 26.5632C35.6326 27.6586 34.3499 28.9268 32.8222 30.3681C32.6781 30.8581 32.5339 31.3337 32.3898 31.7949C32.2745 32.2561 32.1736 32.6885 32.0872 33.092L31.871 34.1729C31.698 34.9512 31.2224 35.3404 30.4442 35.3404ZM30.228 34C30.2856 33.7694 30.3433 33.51 30.4009 33.2217C30.4874 32.9335 30.5883 32.6452 30.7036 32.357L29.7956 33.092C29.9397 33.2938 30.0838 33.5965 30.228 34ZM49.8718 34.3891C47.8253 34.3891 46.802 33.0632 46.802 30.4113C46.802 30.0078 46.8164 29.5754 46.8452 29.1142C46.9029 28.6242 46.9893 28.1053 47.1046 27.5577C46.9893 27.4712 46.874 27.3559 46.7587 27.2118C46.6434 27.0388 46.5281 26.837 46.4128 26.6064C46.5281 26.6353 46.6434 26.6929 46.7587 26.7794C46.9029 26.837 47.0758 26.8947 47.2776 26.9523C47.5947 25.5111 48.4594 24.0843 49.8718 22.6719C51.3995 21.1153 52.8408 20.3371 54.1955 20.3371C54.5126 20.3371 54.6711 20.3803 54.6711 20.4668C54.6711 20.5244 54.4694 20.6685 54.0658 20.8991C52.9993 21.4756 51.9904 22.3692 51.0392 23.5798C50.088 24.8193 49.3962 26.03 48.9638 27.2118L49.0503 27.2982C50.4339 27.2982 51.8751 26.6353 53.374 25.3093C54.8729 23.9834 55.6224 22.6286 55.6224 21.245C55.6224 20.8127 55.5071 20.4235 55.2765 20.0776C55.0459 19.7317 54.7288 19.5588 54.3252 19.5588C53.7487 19.5588 53.1002 19.7894 52.3796 20.2506C51.6589 20.683 51.2554 20.8991 51.1689 20.8991C51.1113 20.8991 51.0825 20.8847 51.0825 20.8559C51.0825 20.51 51.5869 20.1353 52.5958 19.7317C53.4605 19.3858 54.1379 19.2129 54.6279 19.2129C55.2909 19.2129 55.8385 19.4003 56.2709 19.775C56.7321 20.1497 56.9627 20.6685 56.9627 21.3315C56.9627 22.8592 55.9682 24.3437 53.9793 25.7849C52.1922 27.0532 50.4627 27.7594 48.7909 27.9036C48.5603 28.5954 48.445 29.2583 48.445 29.8925C48.445 32.2849 49.3097 33.4812 51.0392 33.4812C52.3652 33.4812 53.7487 32.9047 55.19 31.7517C56.4006 30.8005 57.4095 29.6475 58.2166 28.2927C58.476 27.8892 58.6922 27.6874 58.8651 27.6874C58.894 27.6874 58.9084 27.7162 58.9084 27.7739C58.9084 27.8892 58.7931 28.1486 58.5625 28.5521C57.6689 29.9645 56.415 31.2616 54.8008 32.4435C53.0425 33.7406 51.3995 34.3891 49.8718 34.3891ZM60.2021 34.1297C60.0003 34.1297 59.7409 34.0432 59.4238 33.8703C59.1068 33.6685 58.9482 33.4812 58.9482 33.3082L59.4671 32.1408C59.9571 31.0166 60.4183 29.9213 60.8507 28.8548C61.3119 27.7594 61.6866 26.6641 61.9748 25.5688C62.2631 24.5887 62.4072 23.3781 62.4072 21.9368C62.3207 22.2251 62.1334 22.643 61.8451 23.1907C61.5569 23.7384 61.1677 24.4302 60.6777 25.2661C60.2165 26.0732 59.7986 26.7506 59.4238 27.2982C59.0779 27.8171 58.7897 28.235 58.5591 28.5521C58.5591 28.5809 58.5303 28.5954 58.4726 28.5954C58.3285 28.5954 58.2564 28.5377 58.2564 28.4224C58.2564 28.3648 58.2709 28.3215 58.2997 28.2927L59.64 26.1741C60.4183 24.9346 61.038 23.8104 61.4992 22.8016C61.9604 21.7639 62.2919 20.8559 62.4937 20.0776C62.6666 19.3282 62.9549 18.9535 63.3584 18.9535C63.8196 18.9535 64.0502 19.53 64.0502 20.683C64.0502 22.7583 63.3872 25.3093 62.0613 28.3359C63.6178 26.3759 64.6988 25.0787 65.3041 24.4446C66.9471 22.6863 68.2298 21.8071 69.1522 21.8071C70.0746 21.8071 70.5358 22.4124 70.5358 23.6231C70.5358 24.459 70.3052 25.194 69.844 25.8282C69.2963 26.6353 68.7919 27.0388 68.3307 27.0388C68.2442 27.0388 68.201 26.9812 68.201 26.8659C68.201 26.8659 68.3595 26.5056 68.6766 25.7849C68.9937 25.0643 69.1522 24.4446 69.1522 23.9257C69.1522 23.1475 68.9072 22.7583 68.4172 22.7583C67.6677 22.7583 66.5436 23.6375 65.0447 25.3958C64.4105 26.1164 63.8629 26.7938 63.4017 27.428C62.9405 28.0333 62.5657 28.5809 62.2775 29.071C62.2487 29.1574 62.1045 29.5033 61.8451 30.1087C61.5857 30.714 61.2542 31.6075 60.8507 32.7894L60.4183 34.0432C60.3606 34.1009 60.2886 34.1297 60.2021 34.1297ZM74.0076 33.5676C72.5664 33.5676 71.8457 32.8326 71.8457 31.3625C71.8457 29.7772 72.5808 26.9956 74.0508 23.0178C73.3302 23.9978 72.8258 24.4878 72.5375 24.4878C72.4511 24.4878 72.4078 24.4446 72.4078 24.3581C72.4078 24.3293 72.7825 23.8249 73.532 22.8448C73.9067 22.3548 74.195 21.9801 74.3967 21.7207C74.6273 21.4324 74.757 21.245 74.7859 21.1586C74.93 20.755 75.1318 20.2362 75.3912 19.602C75.6506 18.9679 75.9533 18.2473 76.2992 17.4402C76.9333 15.9989 77.5819 14.5577 78.2448 13.1165C78.9078 11.6464 79.5996 10.1763 80.3202 8.70627C80.5508 8.21625 80.8391 7.62534 81.185 6.93355C81.5597 6.24176 81.9921 5.44908 82.4821 4.55551C82.7991 4.06549 83.3901 3.82048 84.2548 3.82048C84.7736 3.82048 85.0331 3.95019 85.0331 4.20961C85.0331 4.29609 85.0187 4.36815 84.9898 4.4258L82.655 9.61425L81.7038 11.6896C81.502 11.8049 81.2426 12.0211 80.9255 12.3382C80.9255 12.3382 80.767 12.6409 80.4499 13.2462C80.1617 13.8515 79.7005 14.7451 79.0663 15.9269C75.002 23.8249 72.9699 28.9845 72.9699 31.4058C72.9699 32.357 73.287 32.8326 73.9211 32.8326C74.6417 32.8326 75.4921 32.4291 76.4721 31.622C77.481 30.786 77.9566 30.3681 77.8989 30.3681C78.0142 30.3681 78.0719 30.4257 78.0719 30.541C78.0719 30.6563 78.0142 30.7716 77.8989 30.8869C76.6306 32.6741 75.3335 33.5676 74.0076 33.5676ZM81.1593 33.8703C80.0351 33.8703 79.473 33.1497 79.473 31.7084C79.473 29.9501 80.136 28.1486 81.4619 26.3038C81.0007 25.1796 80.7701 23.9834 80.7701 22.7151C80.7701 21.4756 81.0152 20.3947 81.5052 19.4723C82.4276 17.6564 83.6094 16.7484 85.0506 16.7484C86.8378 16.7484 87.8755 18.2761 88.1637 21.3315C88.8843 21.3603 89.4176 21.5909 89.7635 22.0233C90.1382 22.4269 90.3256 23.0034 90.3256 23.7528C90.3256 24.3293 90.2535 24.7473 90.1094 25.0067C89.9941 25.2373 89.8788 25.3526 89.7635 25.3526C89.6482 25.3526 89.5905 25.2949 89.5905 25.1796C89.5905 25.0355 89.6049 24.8626 89.6338 24.6608C89.6914 24.459 89.7202 24.214 89.7202 23.9257C89.7202 23.5222 89.5761 23.2195 89.2879 23.0178C88.9996 22.7872 88.6393 22.6719 88.2069 22.6719C87.861 26.1885 87.0107 28.8836 85.6559 30.7572H86.9963C86.6216 30.9878 86.2901 31.1031 86.0018 31.1031C85.9442 31.1031 85.8577 31.0887 85.7424 31.0599C85.6559 31.031 85.5839 31.0166 85.5262 31.0166C85.5839 31.0455 85.0795 31.5211 84.0129 32.4435C82.8888 33.3947 81.9376 33.8703 81.1593 33.8703ZM81.9376 25.8282C83.6959 23.4646 85.5406 21.9945 87.4719 21.418C86.8954 18.9391 86.1027 17.6996 85.0939 17.6996C84.1715 17.6996 83.3211 18.6076 82.5429 20.4235C82.0529 21.6342 81.8078 22.9169 81.8078 24.2716C81.8078 24.8193 81.8511 25.3382 81.9376 25.8282ZM84.2724 30.541C84.9642 29.9069 85.6704 28.6674 86.391 26.8226C87.1404 24.9202 87.5151 23.5222 87.5151 22.6286C86.881 22.7151 85.8865 23.306 84.5318 24.4014C83.2058 25.4679 82.3843 26.3182 82.0673 26.9523C82.6726 29.143 83.4076 30.3393 84.2724 30.541ZM81.289 32.5732C82.0961 32.5732 83.0329 31.9679 84.0994 30.7572C83.1482 30.6419 82.3699 29.5033 81.7646 27.3415C80.8134 28.9268 80.3378 30.1663 80.3378 31.0599C80.3378 32.0687 80.6549 32.5732 81.289 32.5732ZM101.335 24.8337C100.961 24.8337 100.773 24.6175 100.773 24.1852C100.773 24.0122 100.86 23.6231 101.033 23.0178C101.235 22.4124 101.335 21.908 101.335 21.5045C101.335 20.2074 100.817 19.5588 99.779 19.5588C99.2313 19.5588 98.5683 19.775 97.79 20.2074C96.983 20.6109 96.565 20.8127 96.5362 20.8127C96.4209 20.8127 96.3632 20.7694 96.3632 20.683C96.3632 20.2794 96.9253 19.9047 98.0495 19.5588C98.9142 19.2705 99.6492 19.1264 100.255 19.1264C101.811 19.1264 102.589 20.0632 102.589 21.9368C102.589 22.4557 102.488 23.0178 102.287 23.6231C101.998 24.4302 101.681 24.8337 101.335 24.8337ZM94.677 34.7783C92.6881 34.7783 91.6936 33.6541 91.6936 31.4058C91.6936 29.1574 92.4286 26.8515 93.8987 24.4878C95.5994 21.8071 97.4874 20.4668 99.5628 20.4668C99.8798 20.4668 100.038 20.5244 100.038 20.6397C100.038 20.7262 99.7501 20.9424 99.1736 21.2883C97.7612 22.153 96.5073 23.4646 95.412 25.2229C94.2302 27.0965 93.6393 28.7827 93.6393 30.2816C93.6393 32.6164 94.5184 33.7838 96.2767 33.7838C97.3721 33.7838 98.5827 33.3514 99.9087 32.4867C100.485 32.112 101.018 31.7228 101.508 31.3193C102.027 30.8869 102.488 30.4257 102.892 29.9357C103.036 29.7628 103.209 29.5466 103.411 29.2872C103.613 29.0277 103.829 28.7107 104.059 28.3359C104.319 27.9036 104.521 27.6874 104.665 27.6874C104.665 27.6874 104.694 27.7162 104.751 27.7739C104.751 27.8603 104.622 28.1053 104.362 28.5089C103.872 29.2583 103.281 29.9934 102.589 30.714C101.898 31.4058 101.09 32.0687 100.168 32.7029C98.1504 34.0865 96.32 34.7783 94.677 34.7783ZM115.57 35.643C114.216 35.643 112.645 34.8647 110.857 33.3082C109.503 32.1264 108.292 30.7716 107.226 29.2439L105.583 31.9246C104.891 33.02 104.228 33.8271 103.594 34.3459C103.363 35.0089 102.916 35.3404 102.253 35.3404C101.936 35.3404 101.778 35.2251 101.778 34.9945C101.778 34.1874 102.614 31.6364 104.285 27.3415L103.464 27.428C103.291 27.428 103.204 27.3991 103.204 27.3415C103.204 26.9379 103.637 26.7217 104.502 26.6929C104.963 25.5976 105.453 24.4158 105.972 23.1475C106.491 21.8504 107.053 20.4956 107.658 19.0832C106.332 19.8038 105.381 20.1641 104.804 20.1641C104.689 20.1641 104.631 20.1209 104.631 20.0344C104.631 19.7462 104.833 19.5156 105.237 19.3426L105.972 18.9967C106.808 18.5932 107.557 18.1464 108.22 17.6564C108.595 16.8204 109.056 15.7683 109.604 14.5C110.18 13.2029 110.872 11.6896 111.679 9.96015C111.823 9.58543 112.01 9.13865 112.241 8.6198C112.5 8.10095 112.789 7.48122 113.106 6.7606C113.423 6.09763 114.1 5.76615 115.138 5.76615C115.686 5.76615 115.959 5.92468 115.959 6.24176C115.959 6.35706 115.83 6.74619 115.57 7.40916C115.167 8.5045 114.619 9.71514 113.927 11.0411C113.264 12.367 112.457 13.7938 111.506 15.3216C111.362 15.5233 111.175 15.7828 110.944 16.0998C110.742 16.4169 110.497 16.7916 110.209 17.224L108.825 19.9047C108.105 21.3171 107.067 23.5222 105.712 26.52C106.289 25.9723 106.663 25.6985 106.836 25.6985C107.067 25.6985 107.269 25.857 107.442 26.1741C107.499 26.1453 107.629 26.102 107.831 26.0444C108.061 25.9579 108.35 25.8426 108.696 25.6985C108.811 25.4679 108.955 25.194 109.128 24.877C109.33 24.5311 109.56 24.1275 109.82 23.6663C110.166 23.061 110.54 22.4701 110.944 21.8936C111.376 21.3171 111.837 20.755 112.328 20.2074C113.682 18.6796 114.792 17.9158 115.657 17.9158C116.579 17.9158 117.04 18.8814 117.04 20.8127C117.04 23.2051 114.417 25.0067 109.171 26.2173C108.998 26.5632 108.696 27.0388 108.263 27.6441C109.157 29.2295 110.238 30.6852 111.506 32.0111C113.178 33.7694 114.677 34.6486 116.003 34.6486C116.579 34.6486 117.069 34.4468 117.473 34.0432C117.934 33.6397 118.179 33.4379 118.208 33.4379C118.323 33.4379 118.381 33.4956 118.381 33.6109C118.381 33.6685 118.352 33.7838 118.294 33.9568C117.602 35.0809 116.694 35.643 115.57 35.643ZM109.56 25.4823C113.135 24.1852 114.922 22.5422 114.922 20.5532C114.922 19.7462 114.734 19.3426 114.36 19.3426C113.726 19.3426 112.486 20.7406 110.641 23.5366L109.56 25.4823ZM103.767 33.4812C104.804 32.2705 105.856 30.6996 106.923 28.7683C106.808 28.5665 106.678 28.3215 106.534 28.0333C106.39 27.745 106.217 27.3991 106.015 26.9956L105.539 27.0388C105.251 27.7594 104.963 28.653 104.675 29.7195C104.386 30.786 104.084 32.0399 103.767 33.4812ZM120.327 33.5676C118.886 33.5676 118.165 32.8326 118.165 31.3625C118.165 29.7772 118.9 26.9956 120.37 23.0178C119.65 23.9978 119.145 24.4878 118.857 24.4878C118.771 24.4878 118.727 24.4446 118.727 24.3581C118.727 24.3293 119.102 23.8249 119.851 22.8448C120.226 22.3548 120.514 21.9801 120.716 21.7207C120.947 21.4324 121.077 21.245 121.105 21.1586C121.249 20.755 121.451 20.2362 121.711 19.602C121.97 18.9679 122.273 18.2473 122.619 17.4402C123.253 15.9989 123.901 14.5577 124.564 13.1165C125.227 11.6464 125.919 10.1763 126.64 8.70627C126.87 8.21625 127.159 7.62534 127.504 6.93355C127.879 6.24176 128.312 5.44908 128.802 4.55551C129.119 4.06549 129.71 3.82048 130.574 3.82048C131.093 3.82048 131.353 3.95019 131.353 4.20961C131.353 4.29609 131.338 4.36815 131.309 4.4258L128.974 9.61425L128.023 11.6896C127.822 11.8049 127.562 12.0211 127.245 12.3382C127.245 12.3382 127.086 12.6409 126.769 13.2462C126.481 13.8515 126.02 14.7451 125.386 15.9269C121.322 23.8249 119.289 28.9845 119.289 31.4058C119.289 32.357 119.606 32.8326 120.241 32.8326C120.961 32.8326 121.812 32.4291 122.792 31.622C123.8 30.786 124.276 30.3681 124.218 30.3681C124.334 30.3681 124.391 30.4257 124.391 30.541C124.391 30.6563 124.334 30.7716 124.218 30.8869C122.95 32.6741 121.653 33.5676 120.327 33.5676ZM132.394 34.1729C131.616 34.1729 131.01 33.7694 130.578 32.9623C130.232 32.2993 130.059 31.5355 130.059 30.6707C130.059 30.2384 130.088 29.7628 130.146 29.2439C130.232 28.6962 130.347 28.1053 130.492 27.4712C128.676 31.5067 126.802 33.5244 124.871 33.5244C123.689 33.5244 123.098 32.7605 123.098 31.2328C123.098 28.7827 124.28 26.2461 126.643 23.6231C129.036 20.9424 131.414 19.602 133.778 19.602C134.902 19.602 135.464 20.0921 135.464 21.0721C135.464 22.2827 134.657 23.4934 133.043 24.704C132.207 26.7794 131.789 28.9124 131.789 31.1031C131.789 32.7461 132.149 33.5676 132.87 33.5676C133.878 33.5676 135.608 31.7517 138.058 28.1197C138.231 27.8892 138.361 27.7739 138.447 27.7739C138.534 27.7739 138.577 27.8315 138.577 27.9468C138.577 28.0909 138.519 28.235 138.404 28.3792C135.81 32.2417 133.806 34.1729 132.394 34.1729ZM125.044 32.184C126.86 32.184 128.618 30.1663 130.319 26.1308C130.088 26.1885 129.872 26.2461 129.67 26.3038C129.497 26.3326 129.339 26.347 129.194 26.347C129.079 26.347 129.021 26.3038 129.021 26.2173C129.021 26.0732 129.223 25.9291 129.627 25.7849L130.967 25.0067C131.025 24.5167 131.327 23.8825 131.875 23.1042C132.423 22.2971 132.942 21.8936 133.432 21.8936C133.605 21.8936 133.691 22.0233 133.691 22.2827C133.691 22.4845 133.619 22.8016 133.475 23.234C133.936 22.5998 134.167 21.9801 134.167 21.3748C134.167 20.7118 133.864 20.3803 133.259 20.3803C131.817 20.3803 129.929 21.8071 127.595 24.6608C125.26 27.4568 124.092 29.633 124.092 31.1896C124.092 31.8526 124.409 32.184 125.044 32.184ZM139.057 33.7406C138.74 33.7406 138.581 33.6541 138.581 33.4812C138.581 32.4435 138.999 31.1175 139.835 29.5033C140.873 27.4856 141.478 26.1741 141.651 25.5688C141.939 24.5887 142.083 23.3781 142.083 21.9368C141.997 22.2251 141.81 22.643 141.521 23.1907C141.233 23.7384 140.844 24.4302 140.354 25.2661C139.893 26.0732 139.475 26.7506 139.1 27.2982C138.754 27.8171 138.466 28.235 138.235 28.5521C138.235 28.5809 138.207 28.5954 138.149 28.5954C138.005 28.5954 137.933 28.5377 137.933 28.4224L139.23 26.2173C139.95 25.0067 140.527 23.8969 140.959 22.8881C141.392 21.8504 141.709 20.928 141.911 20.1209C142.083 19.3714 142.429 18.9967 142.948 18.9967C143.467 18.9967 143.726 19.602 143.726 20.8127C143.726 21.4468 143.64 22.2395 143.467 23.1907C143.294 24.1419 143.006 25.2373 142.602 26.4767L140.786 32.1408C141.853 31.3337 142.876 30.4113 143.856 29.3736C144.865 28.3359 145.773 27.1397 146.58 25.7849L146.84 25.3526C147.157 23.2484 147.546 21.9224 148.007 21.3748C148.122 21.173 148.382 21.0721 148.785 21.0721C149.391 21.0721 149.693 21.2306 149.693 21.5477C149.693 22.4124 149.419 23.2051 148.872 23.9257C148.238 26.0876 147.92 28.1918 147.92 30.2384C147.92 31.622 148.353 32.3138 149.218 32.3138C149.65 32.3138 150.154 32.0687 150.731 31.5787C151.307 31.0887 151.581 30.8437 151.552 30.8437C151.639 30.8437 151.682 30.9302 151.682 31.1031V31.1896C150.702 32.5732 149.607 33.265 148.396 33.265C147.157 33.265 146.537 32.1985 146.537 30.0654C146.537 29.5466 146.551 28.9845 146.58 28.3792C146.638 27.7739 146.695 27.1109 146.753 26.3903C145.658 28.4656 143.856 30.4834 141.348 32.4435C141.204 32.5588 141.003 32.7173 140.743 32.9191C140.484 33.1208 140.195 33.337 139.878 33.5676C139.734 33.6829 139.46 33.7406 139.057 33.7406Z" fill="black"/>
</g>
</g>
<defs>
<clipPath id="clip0_1_5">
<rect width="152" height="41" fill="white"/>
</clipPath>
<clipPath id="clip1_1_5">
<rect width="152" height="41" fill="white"/>
</clipPath>
</defs>
</svg>
